<svg xmlns="http://www.w3.org/2000/svg" width="1200" height="630" viewBox="0 0 1200 630" role="img" aria-labelledby="title desc">
  <title id="title">katsyoshi のめもみたいなの</title>
  <desc id="desc">Default OGP draft with favicon-based gradient background, left-aligned title, and category pills.</desc>

  <defs>
    <linearGradient id="bg" x1="0%" y1="0%" x2="100%" y2="0%">
      <stop offset="0%" stop-color="#1E52A3"/>
      <stop offset="25%" stop-color="#3261AB"/>
      <stop offset="50%" stop-color="#4C75B6"/>
      <stop offset="75%" stop-color="#DCE6F4"/>
      <stop offset="100%" stop-color="#F5F9FF"/>
    </linearGradient>
    <linearGradient id="shine" x1="0%" y1="0%" x2="100%" y2="100%">
      <stop offset="0%" stop-color="#F5F9FF" stop-opacity="0.10"/>
      <stop offset="100%" stop-color="#F5F9FF" stop-opacity="0"/>
    </linearGradient>
  </defs>

  <rect width="1200" height="630" fill="url(#bg)"/>
  <rect width="1200" height="630" fill="url(#shine)"/>

  <circle cx="1030" cy="132" r="156" fill="#F5F9FF" fill-opacity="0.20"/>
  <circle cx="1128" cy="118" r="76" fill="#DCE6F4" fill-opacity="0.50"/>
  <circle cx="980" cy="508" r="120" fill="#DCE6F4" fill-opacity="0.18"/>

  <g transform="translate(92 96)" font-family="'Avenir Next', 'Hiragino Sans', 'Noto Sans JP', sans-serif">
    <text x="0" y="0" font-size="26" font-weight="700" letter-spacing="5" fill="#DCE6F4">
      BLOG.KATSYOSHI.ORG
    </text>

    <rect x="0" y="36" width="104" height="8" rx="4" fill="#DCE6F4" fill-opacity="0.96"/>

    <text x="0" y="184" font-size="88" font-weight="800" fill="#F5F9FF">
      katsyoshi
    </text>
    <text x="0" y="288" font-size="58" font-weight="700" fill="#F5F9FF">
      のめもみたいなの
    </text>

    <text x="0" y="374" font-size="25" font-weight="500" fill="#DCE6F4" fill-opacity="0.98">
      default social card
    </text>
  </g>

  <g transform="translate(92 434)" font-family="'Avenir Next', 'Hiragino Sans', 'Noto Sans JP', sans-serif">
    <g transform="translate(0 0)">
      <rect x="0" y="0" width="182" height="58" rx="29" fill="#1E52A3" fill-opacity="0.18" stroke="#DCE6F4" stroke-opacity="0.86" stroke-width="2"/>
      <g transform="translate(22 16)" stroke="#F5F9FF" stroke-width="2.4" stroke-linecap="round" stroke-linejoin="round" fill="none">
        <rect x="0" y="0" width="24" height="24" rx="3"/>
        <path d="M6 0 V-6 M12 0 V-6 M18 0 V-6 M6 24 V30 M12 24 V30 M18 24 V30"/>
        <path d="M0 6 H-6 M0 12 H-6 M0 18 H-6 M24 6 H30 M24 12 H30 M24 18 H30"/>
        <rect x="7" y="7" width="10" height="10" rx="1.5"/>
      </g>
      <text x="70" y="38" font-size="24" font-weight="700" fill="#F5F9FF" letter-spacing="1.2">TECH</text>
    </g>

    <g transform="translate(202 0)">
      <rect x="0" y="0" width="190" height="58" rx="29" fill="#1E52A3" fill-opacity="0.14" stroke="#DCE6F4" stroke-opacity="0.74" stroke-width="2"/>
      <g transform="translate(24 16)" stroke="#F5F9FF" stroke-width="2.6" stroke-linecap="round" stroke-linejoin="round" fill="none">
        <path d="M0 22 H24"/>
        <path d="M4 0 H20 L24 4 V22 H0 V0 Z"/>
        <path d="M7 8 H17"/>
      </g>
      <text x="68" y="38" font-size="24" font-weight="700" fill="#F5F9FF" letter-spacing="1.2">DIARY</text>
    </g>

    <g transform="translate(414 0)">
      <rect x="0" y="0" width="206" height="58" rx="29" fill="#1E52A3" fill-opacity="0.12" stroke="#DCE6F4" stroke-opacity="0.68" stroke-width="2"/>
      <g transform="translate(22 16)" stroke="#F5F9FF" stroke-width="2.6" stroke-linecap="round" stroke-linejoin="round" fill="none">
        <circle cx="6" cy="20" r="4.2"/>
        <circle cx="26" cy="4" r="4.2"/>
        <path d="M10 18 C14 14, 17 10, 22 7"/>
      </g>
      <text x="70" y="38" font-size="24" font-weight="700" fill="#F5F9FF" letter-spacing="1.2">TRAVEL</text>
    </g>

    <g transform="translate(644 0)">
      <rect x="0" y="0" width="194" height="58" rx="29" fill="#1E52A3" fill-opacity="0.10" stroke="#DCE6F4" stroke-opacity="0.64" stroke-width="2"/>
      <g transform="translate(24 15)" stroke="#F5F9FF" stroke-width="2.6" stroke-linecap="round" stroke-linejoin="round" fill="none">
        <rect x="0" y="0" width="22" height="28" rx="3"/>
        <path d="M6 8 H16 M6 14 H16 M6 20 H13"/>
      </g>
      <text x="68" y="38" font-size="24" font-weight="700" fill="#F5F9FF" letter-spacing="1.2">NOTES</text>
    </g>
  </g>
</svg>
