<?xml version="1.0" encoding="UTF-8" standalone="no"?>
<svg
   width="1200"
   height="630"
   viewBox="0 0 1200 630"
   role="img"
   aria-labelledby="title desc"
   version="1.1"
   id="svg28"
   sodipodi:docname="regional-rubykaigi.svg"
   inkscape:version="1.4.3 (0d15f75042, 2025-12-25)"
   xmlns:inkscape="http://www.inkscape.org/namespaces/inkscape"
   xmlns:sodipodi="http://sodipodi.sourceforge.net/DTD/sodipodi-0.dtd"
   xmlns="http://www.w3.org/2000/svg"
   xmlns:svg="http://www.w3.org/2000/svg">
  <sodipodi:namedview
     id="namedview28"
     pagecolor="#ffffff"
     bordercolor="#666666"
     borderopacity="1.0"
     inkscape:showpageshadow="2"
     inkscape:pageopacity="0.0"
     inkscape:pagecheckerboard="0"
     inkscape:deskcolor="#d1d1d1"
     inkscape:zoom="0.78916667"
     inkscape:cx="600.63358"
     inkscape:cy="315.5227"
     inkscape:window-width="3836"
     inkscape:window-height="2103"
     inkscape:window-x="0"
     inkscape:window-y="0"
     inkscape:window-maximized="0"
     inkscape:current-layer="svg28" />
  <title
     id="title">katsyoshi のめもみたいなの Regional RubyKaigi</title>
  <desc
     id="desc">Regional RubyKaigi OGP image for katsyoshi's blog.</desc>
  <defs
     id="defs12">
    <linearGradient
       id="bg"
       x1="0%"
       y1="0%"
       x2="100%"
       y2="0%">
      <stop
         offset="0%"
         stop-color="#1E52A3"
         id="stop1" />
      <stop
         offset="25%"
         stop-color="#3261AB"
         id="stop2" />
      <stop
         offset="50%"
         stop-color="#4C75B6"
         id="stop3" />
      <stop
         offset="75%"
         stop-color="#DCE6F4"
         id="stop4" />
      <stop
         offset="100%"
         stop-color="#F5F9FF"
         id="stop5" />
    </linearGradient>
    <linearGradient
       id="shine"
       x1="0%"
       y1="0%"
       x2="100%"
       y2="100%">
      <stop
         offset="0%"
         stop-color="#F5F9FF"
         stop-opacity="0.12"
         id="stop6" />
      <stop
         offset="100%"
         stop-color="#F5F9FF"
         stop-opacity="0"
         id="stop7" />
    </linearGradient>
    <linearGradient
       id="rubyPin"
       x1="-7.3037973"
       y1="0"
       x2="260.5021"
       y2="267.8059"
       gradientTransform="scale(0.82149049,1.2172995)"
       gradientUnits="userSpaceOnUse">
      <stop
         offset="0%"
         stop-color="#FF7A8A"
         id="stop8" />
      <stop
         offset="45%"
         stop-color="#D7263D"
         id="stop9" />
      <stop
         offset="100%"
         stop-color="#8A0F25"
         id="stop10" />
    </linearGradient>
    <linearGradient
       id="rubyFacet"
       x1="0%"
       y1="0%"
       x2="100%"
       y2="100%">
      <stop
         offset="0%"
         stop-color="#FCE1E5"
         stop-opacity="0.95"
         id="stop11" />
      <stop
         offset="100%"
         stop-color="#FF9EAA"
         stop-opacity="0.85"
         id="stop12" />
    </linearGradient>
  </defs>
  <rect
     width="1200"
     height="630"
     fill="url(#bg)"
     id="rect12" />
  <rect
     width="1200"
     height="630"
     fill="url(#shine)"
     id="rect13" />
  <circle
     cx="1030"
     cy="132"
     r="156"
     fill="#F5F9FF"
     fill-opacity="0.18"
     id="circle13" />
  <circle
     cx="1128"
     cy="118"
     r="76"
     fill="#DCE6F4"
     fill-opacity="0.46"
     id="circle14" />
  <circle
     cx="980"
     cy="508"
     r="120"
     fill="#DCE6F4"
     fill-opacity="0.16"
     id="circle15" />
  <g
     transform="matrix(0.97642873,0,0,0.97642873,750.53432,349.11362)"
     fill="#1e52a3"
     fill-opacity="0.92"
     id="g23">
    <path
       d="m 0,110 h 440 v 26 H 0 Z"
       id="path17" />
    <path
       d="m 44,110 56,-38 56,38 z"
       id="path18" />
    <path
       d="m 132,110 66,-52 66,52 z"
       id="path19" />
    <path
       d="m 236,110 76,-64 76,64 z"
       id="path20" />
    <rect
       x="84"
       y="110"
       width="32"
       height="62"
       rx="4"
       id="rect20" />
    <rect
       x="168"
       y="110"
       width="38"
       height="78"
       rx="4"
       id="rect21" />
    <rect
       x="282"
       y="110"
       width="42"
       height="94"
       rx="4"
       id="rect22" />
    <rect
       x="348"
       y="110"
       width="28"
       height="54"
       rx="4"
       id="rect23" />
    <circle
       cx="0"
       cy="0"
       r="10"
       fill="#f5f9ff"
       fill-opacity="0.9"
       id="circle23"
       transform="matrix(1.1612903,0,0,1.1612903,332.25807,70.967745)" />
    <circle
       cx="38"
       cy="22"
       r="6"
       fill="#f5f9ff"
       fill-opacity="0.72"
       id="circle24"
       transform="matrix(1.1612903,0,0,1.1612903,332.25807,70.967745)" />
    <circle
       cx="-26"
       cy="34"
       r="5"
       fill="#f5f9ff"
       fill-opacity="0.62"
       id="circle25"
       transform="matrix(1.1612903,0,0,1.1612903,332.25807,70.967745)" />
  </g>
  <g
     transform="translate(92 102)"
     font-family="'Avenir Next', 'Hiragino Sans', 'Noto Sans JP', sans-serif"
     id="g17">
    <text
       x="0"
       y="0"
       font-size="26"
       font-weight="700"
       letter-spacing="5"
       fill="#DCE6F4"
       id="text15">BLOG.KATSYOSHI.ORG</text>
    <rect
       x="0"
       y="38"
       width="104"
       height="8"
       rx="4"
       fill="#DCE6F4"
       fill-opacity="0.95"
       id="rect15" />
    <text
       x="0"
       y="188"
       font-size="88"
       font-weight="800"
       fill="#F5F9FF"
       id="text16">katsyoshi</text>
    <text
       x="0"
       y="294"
       font-size="60"
       font-weight="700"
       fill="#F5F9FF"
       id="text17">のめもみたいなの</text>
  </g>
  <g
     transform="matrix(0.71890211,0,0,0.71890211,709.37561,186.16685)"
     id="g28">
    <path
       d="m 92,44 c 49,0 88,38 88,86 0,64 -65,141 -88,165 C 69,271 4,194 4,130 4,82 43,44 92,44 Z"
       fill="#f5f9ff"
       fill-opacity="0.18"
       id="path25" />
    <path
       d="m 104,0 c 62,0 110,49 110,110 0,88 -90,194 -110,216 C 84,304 -6,198 -6,110 -6,49 42,0 104,0 Z"
       fill="url(#rubyPin)"
       id="path26"
       style="fill:url(#rubyPin)" />
    <circle
       cx="104"
       cy="110"
       r="68"
       fill="#8a0f25"
       fill-opacity="0.22"
       id="circle26" />
    <circle
       cx="104"
       cy="110"
       r="34"
       fill="#fce1e5"
       fill-opacity="0.82"
       id="circle27" />
  </g>
</svg>
