<?xml version="1.0" encoding="UTF-8" standalone="no"?>
<svg
   width="1200"
   height="630"
   viewBox="0 0 1200 630"
   role="img"
   aria-labelledby="title desc"
   version="1.1"
   id="svg39"
   sodipodi:docname="rubykaigi.svg"
   xml:space="preserve"
   inkscape:version="1.4.3 (0d15f75042, 2025-12-25)"
   xmlns:inkscape="http://www.inkscape.org/namespaces/inkscape"
   xmlns:sodipodi="http://sodipodi.sourceforge.net/DTD/sodipodi-0.dtd"
   xmlns="http://www.w3.org/2000/svg"
   xmlns:svg="http://www.w3.org/2000/svg"><sodipodi:namedview
     id="namedview39"
     pagecolor="#ffffff"
     bordercolor="#666666"
     borderopacity="1.0"
     inkscape:showpageshadow="2"
     inkscape:pageopacity="0.0"
     inkscape:pagecheckerboard="0"
     inkscape:deskcolor="#d1d1d1"
     inkscape:zoom="1.2325"
     inkscape:cx="1494.5233"
     inkscape:cy="629.6146"
     inkscape:window-width="3836"
     inkscape:window-height="2103"
     inkscape:window-x="0"
     inkscape:window-y="0"
     inkscape:window-maximized="0"
     inkscape:current-layer="svg39" /><title
     id="title">katsyoshi のめもみたいなの RubyKaigi</title><desc
     id="desc">RubyKaigi OGP image for katsyoshi's blog.</desc><defs
     id="defs10"><linearGradient
       id="bg"
       x1="0%"
       y1="0%"
       x2="100%"
       y2="0%"><stop
         offset="0%"
         stop-color="#1E52A3"
         id="stop1" /><stop
         offset="25%"
         stop-color="#3261AB"
         id="stop2" /><stop
         offset="50%"
         stop-color="#4C75B6"
         id="stop3" /><stop
         offset="75%"
         stop-color="#DCE6F4"
         id="stop4" /><stop
         offset="100%"
         stop-color="#F5F9FF"
         id="stop5" /></linearGradient><linearGradient
       id="shine"
       x1="0%"
       y1="0%"
       x2="100%"
       y2="100%"><stop
         offset="0%"
         stop-color="#F5F9FF"
         stop-opacity="0.12"
         id="stop6" /><stop
         offset="100%"
         stop-color="#F5F9FF"
         stop-opacity="0"
         id="stop7" /></linearGradient><linearGradient
       id="ruby"
       x1="0%"
       y1="0%"
       x2="100%"
       y2="100%"><stop
         offset="0%"
         stop-color="#FF7A8A"
         id="stop8" /><stop
         offset="45%"
         stop-color="#D7263D"
         id="stop9" /><stop
         offset="100%"
         stop-color="#8A0F25"
         id="stop10" /></linearGradient></defs><rect
     width="1200"
     height="630"
     fill="url(#bg)"
     id="rect10" /><rect
     width="1200"
     height="630"
     fill="url(#shine)"
     id="rect11" /><circle
     cx="1036"
     cy="126"
     r="154"
     fill="#F5F9FF"
     fill-opacity="0.18"
     id="circle11" /><circle
     cx="1108"
     cy="108"
     r="70"
     fill="#DCE6F4"
     fill-opacity="0.44"
     id="circle12" /><circle
     cx="964"
     cy="510"
     r="126"
     fill="#DCE6F4"
     fill-opacity="0.14"
     id="circle13" /><g
     transform="translate(92 102)"
     font-family="'Avenir Next', 'Hiragino Sans', 'Noto Sans JP', sans-serif"
     id="g16"><text
       x="0"
       y="0"
       font-size="26"
       font-weight="700"
       letter-spacing="5"
       fill="#DCE6F4"
       id="text13">BLOG.KATSYOSHI.ORG</text><rect
       x="0"
       y="38"
       width="104"
       height="8"
       rx="4"
       fill="#DCE6F4"
       fill-opacity="0.95"
       id="rect13" /><text
       x="0"
       y="188"
       font-size="88"
       font-weight="800"
       fill="#F5F9FF"
       id="text15">katsyoshi</text><text
       x="0"
       y="294"
       font-size="60"
       font-weight="700"
       fill="#F5F9FF"
       id="text16">のめもみたいなの</text></g><text
     x="1010"
     y="408"
     font-size="30"
     font-weight="800"
     letter-spacing="5"
     text-anchor="middle"
     font-family="'Avenir Next', 'Hiragino Sans', 'Noto Sans JP', sans-serif"
     fill="#1E52A3"
     id="text14">RUBYKAIGI</text><g
     transform="translate(724 118)"
     id="g39"><g
       transform="translate(18,290)"
       fill="#1e52a3"
       fill-opacity="0.92"
       id="g36"
       style="display:inline"
       sodipodi:insensitive="true"><path
         d="m 0,110 h 440 v 26 H 0 Z"
         id="path30" /><path
         d="m 44,110 56,-38 56,38 z"
         id="path31" /><path
         d="m 132,110 66,-52 66,52 z"
         id="path32" /><path
         d="m 236,110 76,-64 76,64 z"
         id="path33" /><rect
         x="84"
         y="110"
         width="32"
         height="62"
         rx="4"
         id="rect33" /><rect
         x="168"
         y="110"
         width="38"
         height="78"
         rx="4"
         id="rect34" /><rect
         x="282"
         y="110"
         width="42"
         height="94"
         rx="4"
         id="rect35" /><rect
         x="348"
         y="110"
         width="28"
         height="54"
         rx="4"
         id="rect36"
         style="display:inline" /></g><g
       transform="translate(332,78)"
       id="g38"
       style="display:inline"
       sodipodi:insensitive="true"><circle
         cx="0"
         cy="0"
         r="10"
         fill="#f5f9ff"
         fill-opacity="0.9"
         id="circle36" /><circle
         cx="38"
         cy="22"
         r="6"
         fill="#f5f9ff"
         fill-opacity="0.72"
         id="circle37" /><circle
         cx="-26"
         cy="34"
         r="5"
         fill="#f5f9ff"
         fill-opacity="0.62"
         id="circle38" /></g></g><g
     transform="translate(-86.965517,0.81135903)"
     id="g40"><path
       style="fill:#d7263d;stroke-width:0.40568"
       d="m 906.6771,261.7705 c -20.49296,-27.94943 -37.70392,-51.41207 -38.24657,-52.13919 l -0.98664,-1.32204 21.61956,0.105 21.61956,0.105 2.75247,8.31643 c 5.41862,16.372 30.76649,95.48703 30.63535,95.61816 -0.0736,0.0736 -16.90076,-22.73392 -37.39373,-50.68336 z"
       id="path2" /><path
       style="fill:#d7263d;stroke-width:0.40568"
       d="m 868.86411,205.98895 c -1.1714,-0.0819 -2.12982,-0.27636 -2.12982,-0.43201 0,-0.49829 13.07304,-39.62288 13.3367,-39.91367 0.22995,-0.25361 12.70445,16.51654 25.17909,33.84963 l 4.89046,6.79513 -19.57331,-0.075 c -10.76532,-0.0413 -20.53172,-0.14209 -21.70312,-0.22404 z"
       id="path3" /><path
       style="fill:#d7263d;stroke-width:0.40568"
       d="m 910.43139,202.54025 c -2.31179,-2.86424 -28.68696,-39.15934 -28.68696,-39.47638 0,-0.10095 14.79101,-0.18354 32.86892,-0.18354 h 32.86892 l -9.22056,10.85192 c -15.50084,18.24339 -25.6597,30.05779 -26.05684,30.30324 -0.20793,0.12851 -1.00599,-0.54435 -1.77348,-1.49524 z"
       id="path4" /><path
       style="fill:#d7263d;stroke-width:0.40568"
       d="m 914.24879,205.5781 c 0.9228,-1.18039 32.06771,-37.97146 32.87308,-38.83255 0.728,-0.77836 0.74832,-0.25237 0.74832,19.3712 v 20.17128 h -17.08821 c -16.21547,0 -17.05987,-0.0362 -16.53319,-0.70993 z"
       id="path5" /><path
       style="fill:#d7263d;stroke-width:0.40568"
       d="m 950.30427,186.72299 v -19.97073 l 1.18056,1.41089 c 0.6493,0.77599 8.21156,9.6259 16.80501,19.66647 l 15.62446,18.25557 -4.12753,0.25455 c -2.27014,0.14001 -9.8324,0.27692 -16.80502,0.30426 l -12.67748,0.0497 z"
       id="path6" /><path
       style="fill:#d7263d;stroke-width:0.40568"
       d="m 973.428,190.36656 c -7.47464,-8.72732 -15.76848,-18.43635 -18.43075,-21.57562 l -4.84048,-5.70777 17.11229,-0.10583 c 9.41176,-0.0582 24.7661,-0.0582 34.12074,0 l 17.0085,0.10583 -1.9408,2.63691 c -1.0674,1.45031 -8.0178,11.03449 -15.4454,21.29818 -7.42755,10.26369 -13.61471,18.78611 -13.74924,18.93871 -0.13452,0.15259 -6.36021,-6.86309 -13.83486,-15.59041 z"
       id="path7" /><path
       style="fill:#d7263d;stroke-width:0.40568"
       d="m 995.41896,206.30607 -5.39242,-0.22088 1.17506,-1.62271 c 0.64627,-0.8925 7.25454,-10.02029 14.685,-20.28398 7.4305,-10.26369 13.6494,-18.82006 13.8198,-19.01415 0.1704,-0.1941 0.4855,0.26229 0.7003,1.01419 0.4774,1.67122 11.253,36.38246 12.0421,38.79104 l 0.5648,1.72413 -16.1011,-0.0834 c -8.8556,-0.0459 -18.52772,-0.18277 -21.49354,-0.30426 z"
       id="path8" /><path
       style="fill:#d7263d;stroke-width:0.40568"
       d="m 1035.2788,206.18661 c -0.693,-1.82317 -12.6456,-40.69614 -12.5469,-40.80539 0.1136,-0.1256 11.9981,9.75359 37.9172,31.51922 5.6897,4.7779 10.6121,8.93598 10.9389,9.24018 0.5022,0.46761 -2.243,0.55309 -17.7613,0.55309 -14.3109,0 -18.3977,-0.11173 -18.5479,-0.5071 z"
       id="path9" /><path
       style="fill:#d7263d;stroke-width:0.40568"
       d="m 957.6065,311.97504 c 0,-0.19195 42.7068,-57.08088 72.1068,-96.05212 l 5.4324,-7.20081 15.6929,0.044 c 8.631,0.0242 16.7692,0.16113 18.0848,0.30426 l 2.3919,0.26023 -41.1274,37.32252 c -22.6201,20.52738 -47.86659,43.43813 -56.10333,50.91278 -14.69604,13.33629 -16.47807,14.89458 -16.47807,14.40911 z"
       id="path10" /><path
       style="fill:#d7263d;stroke-width:0.40568"
       d="m 954.37876,311.35903 c -0.005,-0.33469 7.52232,-23.51927 16.72789,-51.5213 l 16.73741,-50.91278 22.22174,-0.10489 22.2218,-0.10489 -22.0641,29.31381 c -12.13532,16.1226 -29.13145,38.70477 -37.76924,50.18259 -17.76914,23.61148 -18.06238,23.987 -18.0755,23.14746 z"
       id="path11" /><path
       style="fill:#d7263d;stroke-width:0.40568"
       d="m 950.30427,261.93374 v -53.21163 h 17.4882 17.4882 l -0.27423,1.11562 c -0.36525,1.48594 -34.35639,104.9217 -34.55072,105.13861 -0.0833,0.093 -0.15145,-23.7762 -0.15145,-53.0426 z"
       id="path12" /><path
       style="fill:#d7263d;stroke-width:0.40568"
       d="m 935.97531,279.20893 c -6.18358,-19.24442 -13.7955,-42.92578 -16.91538,-52.62524 -3.11987,-9.69945 -5.6725,-17.77754 -5.6725,-17.95131 0,-0.38188 22.05981,-0.41864 29.31035,-0.0489 l 5.17241,0.2638 v 52.67573 c 0,28.97166 -0.1467,52.67574 -0.326,52.67574 -0.17929,0 -5.38529,-15.74544 -11.56888,-34.98986 z"
       id="path13" /><path
       style="fill:#d7263d;stroke-width:0.40568"
       d="m 907.0994,281.27685 c -13.38742,-12.7298 -32.6927,-31.09268 -42.90061,-40.80639 l -18.55984,-17.66129 v -1.97254 c 0,-1.08489 0.18256,-1.97253 0.40568,-1.97253 0.24965,0 0.40568,-2.0284 0.40568,-5.27383 v -5.27384 h 9.09805 9.09804 l 33.49831,45.683 33.4983,45.68299 v 2.39003 c 0,1.31451 -0.0456,2.38091 -0.10142,2.36977 -0.0558,-0.0111 -11.05477,-10.43556 -24.44219,-23.16537 z"
       id="path14" /><path
       style="fill:#d7263d;stroke-width:0.40568"
       d="m 830.62881,205.72579 c 0,-0.73263 1.42622,-1.97403 25.88671,-22.53213 11.22552,-9.43461 20.50106,-17.06282 20.61232,-16.95156 0.11125,0.11125 -2.79839,9.12146 -6.46587,20.02269 l -6.66814,19.8204 -16.68251,0.10592 c -14.12473,0.0897 -16.68251,0.0183 -16.68251,-0.46532 z"
       id="path15" /><path
       style="fill:#d7263d;stroke-width:0.40568"
       d="m 837.7282,215.41007 -7.30223,-7.06886 8.01217,-0.0124 8.01217,-0.0124 v 2.71965 c 0,3.16179 -0.86952,11.48764 -1.19694,11.461 -0.12261,-0.01 -3.50894,-3.19913 -7.52517,-7.08701 z"
       id="path16" /><path
       style="fill:#d7263d;stroke-width:0.40568"
       d="m 936.18737,308.88792 -4.58343,-4.47314 0.12096,-2.23993 0.12095,-2.23994 4.76674,6.51565 c 2.6217,3.5836 4.76673,6.61042 4.76673,6.72625 0,0.62359 -1.03104,-0.22812 -5.19195,-4.28889 z"
       id="path17" /><path
       d="m 128.94459,65.496153 c -18.2478,15.34806 -26.98095,22.797905 -27.02003,23.05658 -0.0391,0.310415 0.89872,1.31062 4.2982,4.53544 2.40308,2.27634 29.42311,27.919677 60.03799,56.977527 30.63442,29.07508 56.30637,53.42504 57.04879,54.11484 l 1.3676,1.27613 1.40668,-1.27613 c 0.76196,-0.6898 29.40358,-26.71254 63.63285,-57.80529 51.01178,-46.33734 62.2457,-56.632607 62.20663,-56.960262 -0.0391,-0.275925 -8.53778,-7.501585 -27.60614,-23.50495 L 296.76962,42.818963 H 226.33781 155.906 Z m 77.09401,0.17245 c -9.88585,11.62314 -18.03289,21.12514 -18.13057,21.12514 -0.0781,0 -4.1419,-5.449425 -9.00668,-12.123245 -4.86477,-6.67382 -11.76143,-16.124086 -15.33674,-20.98718 -3.57532,-4.880335 -6.50591,-8.95016 -6.54498,-9.01914 -0.0391,-0.06898 15.00461,-0.13796 33.44778,-0.13796 h 33.52593 z m 88.73822,-20.90095 c -0.56659,0.879495 -31.63083,43.7161 -31.70897,43.7161 -0.11723,0 -37.39431,-43.543655 -37.47246,-43.785085 -0.0587,-0.120715 11.50745,-0.17245 34.63957,-0.17245 30.00921,0 34.67861,0.0345 34.54186,0.241435 z m 2.18816,4.673395 c 0.50798,1.603785 2.14911,6.88076 3.65349,11.726609 2.42261,7.829236 8.26425,26.591806 8.4987,27.367831 0.0977,0.29317 -0.42983,0.31041 -9.24113,0.29317 -5.15783,-0.01725 -15.00462,-0.08622 -21.90127,-0.137965 l -12.54291,-0.10347 15.2586,-21.0734 c 8.40101,-11.605896 15.29767,-21.073405 15.31721,-21.038915 0.0196,0.01725 0.44935,1.34511 0.95731,2.96614 z m 27.43032,18.95227 c 13.44163,11.278235 24.42157,20.521565 24.38249,20.521565 -0.0196,0.01725 -8.47916,-0.01725 -18.77529,-0.06898 l -18.75578,-0.08622 -0.13675,-0.43113 c -0.64473,-2.10389 -11.19485,-35.99034 -11.91774,-38.37015 -0.33211,-1.051944 -0.70334,-2.276339 -0.85962,-2.724709 l -0.27354,-0.82776 0.9378,0.741535 c 0.5275,0.41388 11.9568,9.967614 25.39843,21.245854 z m -153.05486,-0.82776 c 8.3424,11.43344 15.14137,20.83197 15.08276,20.88371 -0.0586,0.05173 -10.04215,0.01725 -22.15525,-0.05174 l -22.05756,-0.1552 1.58251,-4.74238 c 9.72956,-28.937132 12.21079,-36.352486 12.21079,-36.524936 0,-0.120715 0.0391,-0.20694 0.0781,-0.20694 0.0391,0 6.91619,9.364039 15.2586,20.797484 z M 153.95228,47.147463 c -0.0586,0.120715 -1.71928,5.07003 -3.71208,11.002319 -1.9928,5.932281 -5.07969,15.141116 -6.87712,20.469826 l -3.26272,9.70894 h -17.68122 -17.70075 l 0.97686,-0.845005 c 1.56298,-1.34511 48.23749,-40.54302 48.2961,-40.54302 0.0195,0 0,0.10347 -0.0391,0.20694 z m 69.9043,41.33629 c -0.0977,0.06897 -7.91259,0.06897 -17.40769,0.01725 l -17.2514,-0.08622 17.34908,-20.418095 17.34909,-20.418095 0.0587,20.40085 c 0.0196,11.226505 -0.0196,20.452585 -0.0977,20.50432 z m 36.67144,0.10347 c 0,0.05173 -7.77585,0.08622 -17.29048,0.08622 H 225.94707 V 68.393318 48.113183 l 17.29047,20.19391 c 9.51463,11.105785 17.29048,20.228395 17.29048,20.28013 z m -80.74749,54.804647 c 45.81486,62.46144 40.89148,55.70137 40.14906,55.04607 -0.3126,-0.29316 -25.69149,-24.38445 -56.40406,-53.54576 C 132.81296,115.73087 107.2387,91.449898 106.69165,90.949793 l -0.97686,-0.89674 h 17.46631 17.48584 z m 7.07249,-53.062902 c 0.0782,0.05174 2.87197,8.708735 10.66734,32.920732 2.87198,8.91567 7.50231,23.31527 10.2766,31.9895 2.79382,8.67422 6.83803,21.24584 8.98713,27.93692 2.1491,6.69107 3.9856,12.38192 4.10283,12.67507 0.0977,0.27594 0.11722,0.43114 0.0196,0.3449 -0.0977,-0.10345 -17.13419,-23.298 -37.84369,-51.56258 -20.72904,-28.26457 -38.19535,-52.079932 -38.82054,-52.907692 -0.62519,-0.845005 -1.13316,-1.55205 -1.13316,-1.58654 0,-0.08622 43.62669,0.103465 43.74392,0.18969 z m 29.48172,0.01725 7.6586,0.10347 -0.0196,54.166602 c 0,30.55816 -0.0782,54.01136 -0.17583,53.82167 -0.0977,-0.18972 -1.87558,-5.7081 -3.9856,-12.24396 -2.0905,-6.55311 -6.29101,-19.59033 -9.29975,-28.97162 -3.02823,-9.39853 -7.59995,-23.62566 -10.17888,-31.64459 -2.57891,-8.01893 -6.19331,-19.1937 -8.01027,-24.85006 -1.81697,-5.639122 -3.3018,-10.312517 -3.3018,-10.381497 0,-0.15521 17.32955,-0.15521 27.31309,0 z m 45.36551,0.155205 c 0,0.08622 -6.87713,21.073407 -11.13623,33.955427 -0.84011,2.55226 -3.30181,10.05384 -5.47045,16.64145 -2.16863,6.58758 -4.63033,14.07192 -5.47043,16.64143 -1.77788,5.36321 -4.27865,12.98551 -9.67093,29.40274 -2.09049,6.39792 -3.84884,11.70937 -3.88792,11.81285 -0.0587,0.0862 -0.0977,-24.29822 -0.0977,-54.20109 l -0.0196,-54.356277 h 17.87659 c 9.82724,0 17.8766,0.05173 17.8766,0.10347 z m 46.83081,0.13796 c 0.0196,0.01725 -17.7203,23.625667 -39.42619,52.442097 -21.7059,28.83366 -39.56295,52.5628 -39.68018,52.73523 -0.0977,0.17246 -0.2149,0.29318 -0.25397,0.25868 -0.0391,-0.0345 1.73881,-5.5184 3.92699,-12.20946 2.2077,-6.69106 5.06014,-15.38256 6.3496,-19.3144 3.71208,-11.27826 5.27506,-16.02063 7.40461,-22.50476 1.0941,-3.32827 2.75475,-8.39833 3.7121,-11.29548 0.95731,-2.89716 2.61797,-7.98445 3.71206,-11.29549 1.93419,-5.84606 2.59846,-7.89822 7.22879,-21.987392 1.19178,-3.65594 2.26632,-6.72555 2.38355,-6.846265 0.13675,-0.15521 5.31414,-0.1897 22.3897,-0.103475 12.21077,0.05173 22.23339,0.103475 22.25294,0.120715 z m 32.08016,0.08622 7.48278,0.103475 -55.42721,50.355442 c -63.78913,57.92598 -62.42153,56.7016 -61.9331,56.01178 0.21492,-0.29316 18.36503,-24.40169 40.34443,-53.58024 l 39.9537,-53.045672 11.03855,0.0345 c 6.07609,0 14.4185,0.06897 18.54085,0.120715 z"
       transform="translate(724,118)"
       id="path1"
       style="fill:#8a0f25;stroke:none;stroke-width:0.0183553" /></g></svg>
