<svg xmlns="http://www.w3.org/2000/svg" width="1200" height="630" viewBox="0 0 1200 630" role="img" aria-labelledby="title desc">
  <title id="title">katsyoshi のめもみたいなの TECH</title>
  <desc id="desc">Tech OGP image for katsyoshi's blog.</desc>

  <defs>
    <linearGradient id="bg" x1="0%" y1="0%" x2="100%" y2="0%">
      <stop offset="0%" stop-color="#1E52A3"/>
      <stop offset="25%" stop-color="#3261AB"/>
      <stop offset="50%" stop-color="#4C75B6"/>
      <stop offset="75%" stop-color="#DCE6F4"/>
      <stop offset="100%" stop-color="#F5F9FF"/>
    </linearGradient>
    <linearGradient id="shine" x1="0%" y1="0%" x2="100%" y2="100%">
      <stop offset="0%" stop-color="#F5F9FF" stop-opacity="0.12"/>
      <stop offset="100%" stop-color="#F5F9FF" stop-opacity="0"/>
    </linearGradient>
    <linearGradient id="trace" x1="0%" y1="0%" x2="100%" y2="0%">
      <stop offset="0%" stop-color="#DCE6F4" stop-opacity="0.10"/>
      <stop offset="100%" stop-color="#F5F9FF" stop-opacity="0.65"/>
    </linearGradient>
  </defs>

  <rect width="1200" height="630" fill="url(#bg)"/>
  <rect width="1200" height="630" fill="url(#shine)"/>

  <circle cx="1038" cy="136" r="162" fill="#F5F9FF" fill-opacity="0.16"/>
  <circle cx="1122" cy="114" r="72" fill="#DCE6F4" fill-opacity="0.42"/>
  <circle cx="976" cy="510" r="124" fill="#DCE6F4" fill-opacity="0.14"/>

  <g transform="translate(92 94)" font-family="'Avenir Next', 'Hiragino Sans', 'Noto Sans JP', sans-serif">
    <text x="0" y="0" font-size="26" font-weight="700" letter-spacing="5" fill="#DCE6F4">
      BLOG.KATSYOSHI.ORG
    </text>
    <rect x="0" y="38" width="104" height="8" rx="4" fill="#DCE6F4" fill-opacity="0.95"/>

    <text x="0" y="210" font-size="88" font-weight="800" fill="#F5F9FF">
      katsyoshi
    </text>
    <text x="0" y="316" font-size="60" font-weight="700" fill="#F5F9FF">
      のめもみたいなの
    </text>
  </g>

  <g transform="translate(760 120)">
    <path d="M0 106 H96" stroke="#4C75B6" stroke-opacity="0.82" stroke-width="10" stroke-linecap="round"/>
    <path d="M28 206 H118" stroke="#4C75B6" stroke-opacity="0.82" stroke-width="10" stroke-linecap="round"/>
    <path d="M-10 314 H84" stroke="#4C75B6" stroke-opacity="0.82" stroke-width="10" stroke-linecap="round"/>
    <path d="M360 128 H458" stroke="#4C75B6" stroke-opacity="0.82" stroke-width="10" stroke-linecap="round"/>
    <path d="M330 240 H420" stroke="#4C75B6" stroke-opacity="0.82" stroke-width="10" stroke-linecap="round"/>
    <path d="M346 332 H448" stroke="#4C75B6" stroke-opacity="0.82" stroke-width="10" stroke-linecap="round"/>

    <g transform="translate(94 88)">
      <rect x="-24" y="-24" width="240" height="240" rx="28" fill="#F5F9FF" fill-opacity="0.22" stroke="#DCE6F4" stroke-opacity="0.32" stroke-width="3"/>
    </g>

    <g transform="translate(94 88)" stroke="#1E52A3" stroke-width="12" stroke-linecap="round" stroke-linejoin="round" fill="none">
      <rect x="0" y="0" width="192" height="192" rx="20"/>
      <rect x="54" y="54" width="84" height="84" rx="12" fill="#DCE6F4" fill-opacity="0.22"/>

      <path d="M34 0 V-28 M72 0 V-28 M110 0 V-28 M148 0 V-28"/>
      <path d="M34 192 V220 M72 192 V220 M110 192 V220 M148 192 V220"/>
      <path d="M0 34 H-28 M0 72 H-28 M0 110 H-28 M0 148 H-28"/>
      <path d="M192 34 H220 M192 72 H220 M192 110 H220 M192 148 H220"/>

      <path d="M138 34 H250"/>
      <path d="M250 34 V14"/>
      <circle cx="250" cy="14" r="10" fill="#1E52A3" stroke="none"/>

      <path d="M192 96 H290"/>
      <path d="M290 96 V152"/>
      <circle cx="290" cy="152" r="10" fill="#1E52A3" stroke="none"/>

      <path d="M54 158 H-44"/>
      <path d="M-44 158 V196"/>
      <circle cx="-44" cy="196" r="10" fill="#1E52A3" stroke="none"/>

      <path d="M96 192 V268"/>
      <path d="M96 268 H156"/>
      <circle cx="156" cy="268" r="10" fill="#1E52A3" stroke="none"/>
    </g>

    <text x="124" y="392" font-family="'Avenir Next', 'Hiragino Sans', 'Noto Sans JP', sans-serif" font-size="28" font-weight="800" letter-spacing="4" fill="#3261AB">
      TECH
    </text>
  </g>
</svg>
