<svg xmlns="http://www.w3.org/2000/svg" width="1200" height="630" viewBox="0 0 1200 630" role="img" aria-labelledby="title desc">
  <title id="title">katsyoshi のめもみたいなの TRAVEL</title>
  <desc id="desc">Travel OGP image for katsyoshi's blog.</desc>

  <defs>
    <linearGradient id="bg" x1="0%" y1="0%" x2="100%" y2="0%">
      <stop offset="0%" stop-color="#1E52A3"/>
      <stop offset="25%" stop-color="#3261AB"/>
      <stop offset="50%" stop-color="#4C75B6"/>
      <stop offset="75%" stop-color="#DCE6F4"/>
      <stop offset="100%" stop-color="#F5F9FF"/>
    </linearGradient>
    <linearGradient id="shine" x1="0%" y1="0%" x2="100%" y2="100%">
      <stop offset="0%" stop-color="#F5F9FF" stop-opacity="0.12"/>
      <stop offset="100%" stop-color="#F5F9FF" stop-opacity="0"/>
    </linearGradient>
  </defs>

  <rect width="1200" height="630" fill="url(#bg)"/>
  <rect width="1200" height="630" fill="url(#shine)"/>

  <circle cx="1030" cy="132" r="156" fill="#F5F9FF" fill-opacity="0.18"/>
  <circle cx="1128" cy="118" r="76" fill="#DCE6F4" fill-opacity="0.46"/>
  <circle cx="980" cy="508" r="120" fill="#DCE6F4" fill-opacity="0.16"/>

  <g transform="translate(92 102)" font-family="'Avenir Next', 'Hiragino Sans', 'Noto Sans JP', sans-serif">
    <text x="0" y="0" font-size="26" font-weight="700" letter-spacing="5" fill="#DCE6F4">BLOG.KATSYOSHI.ORG</text>
    <rect x="0" y="38" width="104" height="8" rx="4" fill="#DCE6F4" fill-opacity="0.95"/>

    <text x="0" y="188" font-size="88" font-weight="800" fill="#F5F9FF">katsyoshi</text>
    <text x="0" y="294" font-size="60" font-weight="700" fill="#F5F9FF">のめもみたいなの</text>
  </g>

  <g transform="translate(742 132)">
    <rect x="30" y="42" width="262" height="232" rx="28" fill="#F5F9FF" fill-opacity="0.18" stroke="#DCE6F4" stroke-opacity="0.28" stroke-width="3"/>

    <path d="M0 54 L102 24 L196 58 L304 18 L304 242 L196 282 L102 248 L0 282 Z" fill="#F5F9FF" fill-opacity="0.94"/>
    <path d="M102 24 V248" stroke="#DCE6F4" stroke-opacity="0.82" stroke-width="4"/>
    <path d="M196 58 V282" stroke="#DCE6F4" stroke-opacity="0.82" stroke-width="4"/>
    <path d="M0 54 L102 24 L196 58 L304 18" fill="none" stroke="#3261AB" stroke-opacity="0.42" stroke-width="4"/>
    <path d="M0 282 L102 248 L196 282 L304 242" fill="none" stroke="#3261AB" stroke-opacity="0.42" stroke-width="4"/>

    <path d="M40 208 C72 170, 88 136, 128 134 C170 132, 184 188, 226 188 C252 188, 270 168, 286 132" fill="none" stroke="#1E52A3" stroke-width="10" stroke-linecap="round" stroke-linejoin="round" stroke-dasharray="1 22"/>

    <circle cx="48" cy="208" r="11" fill="#1E52A3"/>
    <g transform="translate(262 110)">
      <path d="M0 0 C0 -18 14 -30 32 -30 C50 -30 64 -18 64 0 C64 30 32 58 32 58 C32 58 0 30 0 0 Z" fill="#1E52A3"/>
      <circle cx="32" cy="-2" r="11" fill="#F5F9FF"/>
    </g>

    <path d="M136 92 l18 -12 14 18 26 -36" fill="none" stroke="#4C75B6" stroke-width="8" stroke-linecap="round" stroke-linejoin="round"/>
  </g>
</svg>
